<?xml version="1.0" standalone="no"?>
<!DOCTYPE svg PUBLIC "-//W3C//DTD SVG 20010904//EN"
 "http://www.w3.org/TR/2001/REC-SVG-20010904/DTD/svg10.dtd">
<svg version="1.0" xmlns="http://www.w3.org/2000/svg"
 width="512.000000pt" height="512.000000pt" viewBox="0 0 512.000000 512.000000"
 preserveAspectRatio="xMidYMid meet">

<g transform="translate(0.000000,512.000000) scale(0.100000,-0.100000)"
fill="#000000" stroke="none">
<path d="M2806 5104 c-59 -21 -98 -56 -131 -115 l-30 -54 -3 -619 c-3 -681 -3
-685 58 -758 16 -20 53 -48 82 -62 l52 -26 278 0 279 0 -3 -82 -3 -83 -617 -3
-618 -2 0 -131 c0 -72 -4 -129 -9 -127 -4 2 -155 91 -334 198 -324 195 -325
195 -331 233 -10 61 -64 156 -117 208 -92 90 -224 133 -344 112 -172 -30 -297
-143 -340 -308 -12 -49 -15 -139 -15 -532 l0 -472 83 -3 82 -3 3 -163 2 -162
80 0 80 0 0 -250 0 -250 85 0 85 0 0 250 0 250 80 0 80 0 0 165 0 165 85 0 84
0 3 130 3 130 328 -196 327 -197 0 -428 0 -429 -22 -4 c-13 -3 -45 -7 -71 -10
-75 -9 -196 -53 -273 -101 -39 -25 -112 -83 -161 -130 -67 -62 -98 -85 -117
-85 -17 0 -29 7 -32 18 -38 116 -123 218 -219 263 -81 39 -145 49 -295 49
l-127 0 -7 72 c-12 129 -74 212 -181 243 -47 14 -69 15 -134 6 -201 -27 -365
-144 -452 -324 -54 -112 -62 -176 -57 -465 4 -222 7 -254 27 -317 43 -132 98
-223 191 -315 151 -151 287 -210 500 -217 149 -6 222 8 344 65 156 74 290 210
366 372 20 42 28 50 51 50 26 0 29 -6 60 -97 71 -216 128 -295 257 -356 l67
-32 313 -3 312 -3 19 -37 c23 -44 62 -82 111 -108 34 -18 87 -19 1269 -22
l1234 -2 -6 117 c-7 164 -50 274 -137 358 l-30 29 0 1398 0 1398 -370 0 -370
0 0 84 0 85 288 3 c316 3 316 3 382 70 72 72 70 40 70 753 0 599 -2 643 -19
680 -23 51 -98 118 -149 133 -29 9 -288 12 -988 11 -798 0 -955 -3 -988 -15z
m1955 -173 l24 -19 3 -471 3 -471 -991 0 -990 0 0 464 c0 454 0 464 21 490
l20 26 944 0 c913 0 944 -1 966 -19z m29 -1185 c0 -44 -5 -61 -24 -83 l-24
-28 -942 0 -942 0 -24 28 c-19 22 -24 39 -24 83 l0 54 990 0 990 0 0 -54z
m-3620 -137 c95 -43 140 -113 148 -226 l5 -73 -247 0 -246 0 0 58 c0 84 16
129 67 183 72 77 180 100 273 58z m2870 -219 l0 -80 -245 0 -245 0 0 80 0 80
245 0 245 0 0 -80z m-2215 -353 l320 -193 3 -147 c1 -81 -1 -147 -5 -147 -4 0
-153 87 -330 193 l-322 192 -1 148 c0 81 3 147 8 147 4 -1 151 -87 327 -193z
m-505 -147 l0 -250 -245 0 -245 0 0 250 0 250 245 0 245 0 0 -250z m3470 -165
l0 -415 -1240 0 -1240 0 0 415 0 415 1240 0 1240 0 0 -415z m-3635 -330 l0
-80 -82 -3 -83 -3 0 86 0 86 83 -3 82 -3 0 -80z m3633 -1018 l2 -768 -22 7
c-13 4 -49 23 -80 43 l-58 36 0 642 0 643 -1075 0 -1075 0 0 -245 0 -245 -85
0 -85 0 0 323 c0 178 3 327 7 330 3 4 560 6 1237 5 l1231 -3 3 -768z m-328
-34 l-1 -478 -39 45 c-22 25 -55 76 -74 115 -99 206 -121 245 -169 305 -122
150 -306 263 -492 301 -90 18 -131 20 -571 17 l-474 -3 0 81 c0 44 3 84 7 87
3 4 413 7 910 7 l903 0 0 -477z m-3826 278 c14 -14 21 -38 24 -79 l4 -59 -46
-27 c-55 -32 -98 -88 -115 -148 -9 -30 -11 -111 -9 -258 3 -199 5 -218 25
-256 25 -47 84 -102 124 -116 15 -5 30 -19 33 -31 8 -35 74 -106 118 -128 119
-60 267 -17 334 96 26 44 27 45 80 45 30 0 54 -3 54 -6 0 -18 -80 -121 -130
-168 -106 -98 -233 -146 -387 -146 -251 0 -459 152 -545 400 -22 61 -23 81
-23 331 l0 265 38 76 c26 53 54 91 90 124 109 99 274 141 331 85z m3036 -157
c108 -25 218 -85 303 -164 90 -84 132 -145 185 -269 62 -143 98 -196 222 -324
132 -137 194 -184 337 -256 56 -28 118 -67 138 -86 38 -39 79 -111 90 -163 l7
-32 -1127 0 c-716 0 -1133 4 -1145 10 -38 20 -40 55 -40 646 0 580 2 615 37
642 27 20 906 17 993 -4z m-2490 -168 c91 -48 131 -115 138 -228 l5 -78 140 0
140 0 117 114 c189 185 270 216 578 216 l182 0 0 -329 0 -330 -237 -3 c-234
-3 -239 -3 -293 -30 -30 -14 -68 -37 -83 -50 l-28 -23 59 -59 60 -58 32 23
c31 23 38 24 261 27 l229 3 0 -81 0 -81 -287 3 c-274 3 -290 4 -329 25 -82 44
-106 83 -174 287 l-62 186 -319 0 -319 0 0 -50 c0 -27 -5 -60 -11 -74 -21 -46
-99 -57 -131 -19 -7 9 -15 43 -18 77 l-5 61 -62 5 c-97 8 -97 8 -101 222 -4
201 -2 218 31 248 21 20 30 21 237 18 187 -3 220 -5 250 -22z"/>
<path d="M3630 4775 c-184 -39 -336 -123 -465 -255 l-60 -61 86 -82 c129 -123
273 -200 438 -233 102 -20 291 -15 391 11 148 39 305 132 420 250 l55 56 -71
68 c-123 118 -242 187 -396 231 -95 28 -304 36 -398 15z m257 -181 c52 -39 68
-71 68 -134 0 -66 -18 -99 -75 -137 -63 -43 -167 -23 -212 40 -33 45 -36 125
-8 175 32 57 82 84 148 79 32 -2 63 -11 79 -23z m-412 -133 c0 -86 -1 -89 -20
-79 -42 23 -105 69 -105 79 0 5 28 27 63 49 34 22 62 40 62 40 0 0 0 -40 0
-89z m770 7 c10 -10 -16 -33 -84 -75 l-36 -21 0 88 0 87 55 -34 c30 -19 60
-39 65 -45z"/>
<path d="M2625 2951 c-90 -41 -145 -126 -145 -226 0 -73 23 -126 76 -177 51
-49 100 -68 171 -68 139 1 243 105 243 245 0 71 -23 126 -71 174 -48 48 -103
71 -174 71 -37 0 -76 -8 -100 -19z m155 -171 c12 -12 20 -33 20 -55 0 -22 -8
-43 -20 -55 -12 -12 -33 -20 -55 -20 -22 0 -43 8 -55 20 -12 12 -20 33 -20 55
0 22 8 43 20 55 12 12 33 20 55 20 22 0 43 -8 55 -20z"/>
<path d="M3285 2952 c-53 -25 -121 -100 -134 -148 -26 -92 -8 -177 51 -240 54
-59 110 -84 184 -84 72 0 127 24 177 75 107 110 84 299 -47 380 -63 39 -168
46 -231 17z m155 -172 c12 -12 20 -33 20 -55 0 -45 -29 -75 -72 -75 -68 0
-102 78 -56 127 27 29 80 31 108 3z"/>
<path d="M3800 2725 l0 -245 415 0 415 0 0 245 0 245 -415 0 -415 0 0 -245z
m660 0 l0 -85 -245 0 -245 0 0 85 0 85 245 0 245 0 0 -85z"/>
</g>
</svg>
