<?xml version="1.0" standalone="no"?>
<!DOCTYPE svg PUBLIC "-//W3C//DTD SVG 20010904//EN"
 "http://www.w3.org/TR/2001/REC-SVG-20010904/DTD/svg10.dtd">
<svg version="1.0" xmlns="http://www.w3.org/2000/svg"
 width="512.000000pt" height="512.000000pt" viewBox="0 0 512.000000 512.000000"
 preserveAspectRatio="xMidYMid meet">

<g transform="translate(0.000000,512.000000) scale(0.100000,-0.100000)"
fill="#000000" stroke="none">
<path d="M2970 3360 l0 -400 775 0 775 0 0 400 0 400 -775 0 -775 0 0 -400z"/>
<path d="M2560 2105 l0 -295 75 0 75 0 0 -170 0 -170 170 0 170 0 0 -150 0
-150 -170 0 -170 0 0 -170 0 -170 -75 0 -75 0 0 -295 0 -295 1280 0 1280 0 0
1080 0 1080 -1280 0 -1280 0 0 -295z"/>
</g>
</svg>
