<?xml version="1.0" standalone="no"?>
<!DOCTYPE svg PUBLIC "-//W3C//DTD SVG 20010904//EN"
 "http://www.w3.org/TR/2001/REC-SVG-20010904/DTD/svg10.dtd">
<svg version="1.0" xmlns="http://www.w3.org/2000/svg"
 width="512.000000pt" height="512.000000pt" viewBox="0 0 512.000000 512.000000"
 preserveAspectRatio="xMidYMid meet">

<g transform="translate(0.000000,512.000000) scale(0.100000,-0.100000)"
fill="#000000" stroke="none">
<path d="M2383 5105 c-238 -43 -462 -176 -616 -365 -86 -107 -168 -270 -204
-405 -22 -87 -26 -120 -26 -255 0 -136 4 -168 27 -255 90 -342 334 -610 661
-728 296 -106 647 -58 912 125 206 142 354 355 420 605 22 85 26 118 26 253 0
135 -4 168 -26 255 -138 527 -653 865 -1174 770z m437 -193 c276 -91 479 -303
567 -589 23 -78 26 -105 27 -238 1 -127 -3 -162 -22 -228 -62 -217 -183 -387
-359 -504 -484 -321 -1128 -83 -1299 482 -25 81 -28 105 -28 245 0 140 3 164
27 243 98 319 330 537 652 613 41 9 104 13 200 10 124 -3 151 -7 235 -34z"/>
<path d="M2405 2754 c-96 -19 -236 -90 -312 -159 -82 -74 -152 -181 -187 -285
-24 -71 -29 -102 -30 -190 -1 -125 13 -187 66 -298 41 -87 146 -210 214 -253
19 -11 34 -24 34 -28 0 -5 -19 -17 -42 -27 -123 -55 -288 -192 -376 -311 -53
-72 -41 -74 -107 17 -63 87 -190 191 -312 255 -1 1 30 35 71 76 118 121 162
238 154 410 -8 151 -56 257 -168 366 -192 189 -518 204 -730 35 -139 -111
-210 -257 -210 -432 0 -159 56 -288 175 -398 l65 -61 -58 -31 c-136 -73 -264
-208 -342 -364 -55 -108 -53 -160 9 -186 50 -20 79 2 127 97 104 206 264 335
467 377 94 20 152 20 242 1 157 -33 316 -143 410 -285 68 -102 70 -112 40
-200 -38 -111 -55 -227 -55 -371 l0 -129 -590 0 -590 0 0 150 c0 147 -1 152
-25 175 -32 33 -78 33 -110 0 -25 -24 -25 -25 -25 -229 0 -112 3 -212 6 -221
17 -44 26 -45 699 -45 l635 0 0 -80 c0 -73 3 -83 25 -105 l24 -25 961 0 961 0
24 25 c22 22 25 32 25 105 l0 80 635 0 c673 0 682 1 699 45 3 9 6 61 6 116 0
93 -2 102 -25 124 -55 56 -135 15 -135 -70 l0 -45 -590 0 -590 0 0 129 c0 144
-17 260 -55 371 -30 88 -28 98 40 200 129 194 355 312 568 296 97 -7 223 -49
299 -99 86 -58 187 -170 235 -262 41 -79 83 -207 83 -253 0 -31 52 -82 83 -82
13 0 37 10 52 22 27 21 27 24 22 92 -7 90 -51 222 -108 323 -56 100 -215 261
-311 317 l-67 38 61 57 c119 110 178 242 178 400 0 352 -323 612 -672 540 -82
-17 -206 -81 -265 -137 -111 -108 -163 -220 -171 -371 -8 -172 36 -289 154
-410 41 -41 72 -75 71 -76 -129 -68 -248 -166 -325 -270 -24 -33 -46 -59 -49
-58 -2 1 -26 30 -52 65 -91 119 -209 218 -353 293 l-78 41 56 39 c102 74 200
216 240 350 28 92 26 259 -4 355 -36 114 -86 196 -172 281 -164 163 -390 229
-625 183z m250 -159 c261 -55 442 -300 406 -547 -18 -122 -59 -204 -145 -290
-97 -97 -223 -148 -366 -148 -139 0 -255 47 -357 143 -106 100 -154 211 -154
355 0 235 165 435 401 486 85 19 130 19 215 1z m-1530 -291 c116 -30 206 -105
259 -214 28 -59 31 -74 31 -160 0 -82 -4 -103 -27 -153 -76 -161 -253 -257
-423 -229 -131 21 -247 110 -303 229 -23 50 -27 71 -27 153 0 83 4 103 28 155
82 176 276 268 462 219z m3118 -14 c80 -30 167 -112 209 -198 30 -61 33 -74
33 -162 0 -82 -4 -103 -27 -153 -76 -161 -253 -257 -423 -229 -131 21 -247
110 -303 229 -23 50 -27 71 -27 153 0 86 3 101 31 160 92 191 306 275 507 200z
m-1541 -864 c157 -30 288 -98 405 -210 126 -119 207 -252 260 -423 25 -84 27
-100 31 -355 l4 -268 -761 -2 c-419 -1 -798 -3 -843 -3 l-83 0 -3 190 c-2 105
2 233 8 285 45 362 277 659 599 765 109 36 262 44 383 21z"/>
</g>
</svg>
