<?xml version="1.0" standalone="no"?>
<!DOCTYPE svg PUBLIC "-//W3C//DTD SVG 20010904//EN"
 "http://www.w3.org/TR/2001/REC-SVG-20010904/DTD/svg10.dtd">
<svg version="1.0" xmlns="http://www.w3.org/2000/svg"
 width="512.000000pt" height="512.000000pt" viewBox="0 0 512.000000 512.000000"
 preserveAspectRatio="xMidYMid meet">

<g transform="translate(0.000000,512.000000) scale(0.100000,-0.100000)"
fill="#000000" stroke="none">
<path d="M2415 5113 c-277 -34 -502 -116 -725 -264 -127 -84 -325 -282 -409
-409 -123 -185 -207 -391 -247 -605 -17 -88 -19 -153 -19 -550 0 -431 1 -454
23 -554 65 -295 190 -545 374 -746 l57 -62 -123 -6 c-376 -19 -681 -152 -937
-407 -159 -159 -266 -330 -334 -533 -62 -187 -67 -224 -72 -554 -5 -300 -5
-302 18 -342 24 -43 85 -81 129 -81 44 0 105 38 128 79 21 37 22 50 22 287 0
286 12 382 64 530 112 312 360 557 671 664 l55 19 0 -260 c0 -238 -1 -260 -17
-265 -75 -24 -155 -74 -214 -133 -132 -133 -169 -242 -169 -495 0 -133 3 -167
18 -196 53 -107 211 -107 264 0 15 29 18 62 18 186 0 165 9 208 56 270 15 19
48 47 73 62 40 23 57 27 126 27 69 0 86 -4 126 -27 25 -15 58 -43 73 -62 47
-62 56 -105 56 -270 0 -124 3 -157 18 -186 53 -107 211 -107 264 0 27 53 26
327 -2 434 -40 159 -151 293 -298 362 l-82 39 0 278 0 277 98 0 97 0 426 -788
c399 -738 428 -788 465 -809 50 -29 98 -29 148 0 37 21 66 71 465 809 l426
788 68 0 67 0 0 -285 0 -285 -52 -26 c-75 -38 -162 -129 -201 -211 -31 -65
-32 -74 -32 -188 0 -114 1 -123 32 -188 43 -90 126 -173 218 -218 68 -33 74
-34 190 -34 114 0 123 1 188 32 89 43 172 125 218 218 33 68 34 73 34 190 0
114 -1 123 -32 188 -39 82 -126 173 -201 211 l-52 26 0 271 0 271 33 -7 c17
-4 77 -25 133 -46 286 -111 514 -348 620 -643 52 -148 64 -244 64 -529 0 -229
2 -251 20 -287 23 -45 80 -80 130 -80 51 0 107 35 131 82 20 40 21 50 16 342
-4 278 -6 309 -30 406 -67 280 -181 484 -377 680 -255 256 -559 388 -938 407
l-123 6 45 46 c179 185 324 467 388 761 22 101 23 123 23 555 0 507 -4 548
-75 765 -78 240 -192 424 -379 610 -256 256 -543 399 -888 445 -99 13 -274 17
-348 8z m325 -308 c192 -29 369 -99 527 -207 157 -107 324 -300 412 -476 39
-76 101 -260 101 -295 0 -24 -6 -27 -92 -48 -77 -19 -120 -23 -248 -23 -135 1
-168 4 -251 26 -182 49 -329 132 -472 268 -134 126 -180 126 -314 0 -143 -136
-290 -219 -472 -268 -83 -22 -116 -25 -251 -26 -128 0 -171 4 -247 23 -111 27
-110 23 -59 176 67 198 161 351 305 495 205 204 454 325 746 363 73 10 228 6
315 -8z m-93 -1090 c154 -114 356 -203 551 -242 160 -32 487 -19 598 24 15 5
16 -24 11 -323 -4 -285 -7 -340 -25 -414 -120 -500 -485 -859 -982 -966 -62
-13 -128 -18 -240 -18 -172 0 -264 15 -410 66 -354 125 -637 406 -765 758 -61
170 -67 217 -72 574 -5 299 -4 328 11 323 111 -43 438 -56 598 -24 196 39 400
129 548 241 47 35 86 65 87 65 2 1 42 -28 90 -64z m-568 -2165 c67 -22 130
-40 141 -40 10 0 21 -3 24 -8 2 -4 -30 -45 -73 -91 l-77 -84 -71 131 c-39 73
-70 132 -68 132 1 0 57 -18 124 -40z m1013 -100 c-41 -77 -78 -140 -82 -140
-9 0 -153 181 -147 186 2 2 38 13 79 24 41 11 103 30 139 44 35 13 69 24 75
25 7 0 -22 -62 -64 -139z m-380 -256 c76 -93 138 -173 139 -177 2 -10 -284
-546 -291 -546 -3 0 -74 128 -158 285 -134 249 -151 287 -140 303 7 9 76 88
153 174 107 120 142 154 150 144 6 -7 72 -90 147 -183z m1182 -443 c45 -30 66
-70 66 -126 0 -88 -57 -145 -145 -145 -88 0 -145 57 -145 145 0 88 57 145 145
145 32 0 60 -7 79 -19z"/>
</g>
</svg>
